<?xml version="1.0" encoding="UTF-8" standalone="no"?>
<!-- Created with Inkscape (http://www.inkscape.org/) -->

<svg
   width="122.44002mm"
   height="104.17194mm"
   viewBox="0 0 122.44002 104.17194"
   version="1.1"
   id="svg1"
   xml:space="preserve"
   sodipodi:docname="logo_beta.svg"
   inkscape:version="1.3.2 (091e20ef0f, 2023-11-25, custom)"
   xmlns:inkscape="http://www.inkscape.org/namespaces/inkscape"
   xmlns:sodipodi="http://sodipodi.sourceforge.net/DTD/sodipodi-0.dtd"
   xmlns="http://www.w3.org/2000/svg"
   xmlns:svg="http://www.w3.org/2000/svg"><sodipodi:namedview
     id="namedview1"
     pagecolor="#ffffff"
     bordercolor="#111111"
     borderopacity="1"
     inkscape:showpageshadow="0"
     inkscape:pageopacity="0"
     inkscape:pagecheckerboard="1"
     inkscape:deskcolor="#d1d1d1"
     inkscape:document-units="mm"
     inkscape:zoom="0.5"
     inkscape:cx="264"
     inkscape:cy="371"
     inkscape:window-width="2560"
     inkscape:window-height="1389"
     inkscape:window-x="0"
     inkscape:window-y="27"
     inkscape:window-maximized="1"
     inkscape:current-layer="Rlign" /><defs
     id="defs1" /><g
     inkscape:label="Rlign"
     inkscape:groupmode="layer"
     id="Rlign"
     transform="translate(-26.140946,-33.277438)"><text
       xml:space="preserve"
       style="font-style:italic;font-size:55.6054px;font-family:P052;-inkscape-font-specification:'P052, Italic';fill:#000000;stroke-width:0.264583"
       x="25.640497"
       y="96.247154"
       id="Text"><tspan
         sodipodi:role="line"
         id="tspan1"
         style="stroke-width:0.264583"
         x="25.640497"
         y="96.247154">Rl gn</tspan></text><path
       id="ecg_1"
       data-name="ecg wave path"
       d="m 556.04952,784.2593 c -4.2279,65.042 -5.83473,84.97608 -6.6302,86.19 a 8.03034,8.03034 0 0 1 -4.102,2.93738 c -6.06494,1.52222 -6.86871,0.35462 -26.2702,-38.15845 l -18.26142,-36.25 8.38758,-15.05145 c 1.965,0.74713 4.96429,5.85864 14.12054,24.06488 10.97864,21.83 13.581,25.55091 14.27344,20.40821 0.0504,-0.37466 1.086,-16.58689 2.8302,-44.23343 z"
       style="fill:#000000;fill-opacity:1;stroke:#000000;stroke-opacity:1"
       transform="matrix(0.11099685,0,0,0.15079258,20.851198,-5.6579243)" /><path
       id="ecg-R"
       data-name="ecg wave path"
       d="m 601.58186,783.1521 c -1.56475,-27.799 -3.3582,-59.93945 -5.41413,-96.97956 -7.86682,-141.73187 -14.56579,-258.77191 -14.88665,-260.08893 -0.41156,-1.68957 -0.896,-2.082 -1.64527,-1.3327 -0.6535,0.6535 -6.38086,86.12958 -14.89123,222.23858 -3.73052,59.66389 -6.5501,104.27192 -8.69506,137.26981 l -15.65211,-0.0928 c 3.17609,-50.34339 8.70183,-138.602 14.90735,-238.18821 9.6134,-154.275 17.71661,-281.50683 18.00714,-282.73736 1.46088,-6.18656 11.38855,-6.8678 13.98389,-0.95954 1.05633,2.40464 5.58984,78.977 18.29339,308.98176 4.83388,87.52009 8.88384,159.39856 11.90982,211.52963"
       style="fill:#ad090f;fill-opacity:1"
       transform="matrix(0.11099685,0,0,0.15079258,20.851198,-5.6579243)" /><path
       d="m 650.85908,784.7362 c 2.02777,-1.642 7.06952,-1.75794 76.44177,-1.75794 h 74.27094 l 12.29529,-14.25 c 15.14038,-17.5476 43.25305,-45.63574 55.96362,-55.91479 19.05383,-15.409 35.969,-23.83521 47.8479,-23.83521 6.44079,0 14.45972,2.48926 21.26672,6.60181 15.88574,9.59741 35.81018,37.03967 52.93555,72.90906 l 6.9176,14.48913 h 147.10103 l 2.4546,2.45453 a 7.813,7.813 0 0 1 0.543,10.6847 l -1.9113,2.36077 -77.3387,0.24518 c -82.87006,0.2627 -81.00764,0.3689 -83.47285,-4.75964 -13.23254,-27.52832 -22.43957,-45.31836 -27.422,-52.98554 -12.53687,-19.29229 -26.83594,-33.54754 -36.172,-36.06152 -7.85791,-2.1159 -20.00537,3.13782 -37.65723,16.28662 -11.66992,8.69287 -47.34167,44.08014 -63.123,62.61957 -6.24762,7.3396 -12.43091,13.75208 -13.74054,14.25 -1.34058,0.5097 -33.54437,0.90533 -73.69361,0.90533 -55.86309,0 -71.5238,0.27076 -72.288,1.25"
       id="ecg-2"
       transform="matrix(0.11099685,0,0,0.15079258,20.851198,-5.6579243)" /><path
       d="m 662.07789,800.22826 c -0.5365,0.6875 -8.97894,33.3396 -18.761,72.56031 -10.18713,40.84472 -18.474,72.12085 -19.397,73.20727 a 8.08959,8.08959 0 0 1 -8.64618,2.05237 10.53075,10.53075 0 0 1 -3.4187,-2.51379 c -0.88378,-1.065 -3.32127,-38.87589 -10.27319,-162.38232 l 15.91714,-0.35935 c 3.54042,60.99393 5.67908,94.95513 6.03147,95.30758 0.73632,0.73633 1.28509,0.67542 1.82788,-0.20275 0.42657,-0.69031 5.85028,-21.5384 12.05267,-46.32923 9.22827,-36.88519 11.67145,-45.39355 13.44806,-46.83215"
       style="fill:#000000;fill-opacity:1;stroke:#000000;stroke-opacity:1"
       id="ecg-3"
       transform="matrix(0.11099685,0,0,0.15079258,20.851198,-5.6579243)" /><path
       id="ecg-4"
       data-name="ecg wave path"
       d="m 500.78565,798.97826 -53.73858,-0.0137 c -29.55622,-0.008 -54.76087,-0.28753 -56.01038,-0.62231 -1.31482,-0.3523 -5.29327,-4.62873 -9.44519,-10.15271 -14.97876,-19.92871 -33.36053,-36.928 -47.4729,-43.90247 -7.08713,-3.50256 -8.35449,-3.80145 -15.75851,-3.71649 -6.238,0.0716 -10.15509,0.806 -17.39017,3.26062 -18.81363,6.38275 -49.98618,24.08337 -78.96924,44.84076 l -13.6922,9.80627 -75.5,0.29963 c -52.91983,0.21 -76.63505,-0.0303 -79.29516,-0.80365 -5.941,-1.72718 -7.613,-8.17871 -3.25031,-12.54145 l 2.45454,-2.45453 h 150.361 l 8.615,-6.37872 c 12.416,-9.19305 30.934,-21.36932 43.521,-28.61658 31.65582,-18.22662 56.60168,-25.778 72.70758,-22.00927 q 29.83319,6.9808 60.54083,45.197 l 9.47785,11.80755 h 54.36877 c 31.86121,0 55.40155,0.3927 56.86365,0.94855"
       transform="matrix(0.11099685,0,0,0.15079258,20.851198,-5.6579243)" /></g></svg>
